<mxfile host="app.diagrams.net" agent="Mozilla/5.0 (Windows NT 10.0; Win64; x64) AppleWebKit/537.36 (KHTML, like Gecko) Chrome/128.0.0.0 Safari/537.36 OPR/114.0.0.0" version="25.0.3">
  <diagram name="Page-1" id="uXcRs4IgSByFZKDyGiII">
    <mxGraphModel dx="994" dy="538" grid="1" gridSize="10" guides="1" tooltips="1" connect="1" arrows="1" fold="1" page="1" pageScale="1" pageWidth="827" pageHeight="1169" math="0" shadow="0">
      <root>
        <mxCell id="0" />
        <mxCell id="1" parent="0" />
        <mxCell id="U0RL2yRHfHztLzOohjh9-1" value="Plateau" style="swimlane;fontStyle=1;align=center;verticalAlign=top;childLayout=stackLayout;horizontal=1;startSize=26;horizontalStack=0;resizeParent=1;resizeParentMax=0;resizeLast=0;collapsible=1;marginBottom=0;whiteSpace=wrap;html=1;" vertex="1" parent="1">
          <mxGeometry x="4" y="90" width="490" height="240" as="geometry" />
        </mxCell>
        <mxCell id="U0RL2yRHfHztLzOohjh9-2" value="- n: int32&lt;div&gt;- des: De[,]&lt;/div&gt;&lt;div&gt;- r: Random&lt;/div&gt;&lt;div&gt;- DicoLettre: Dictionary&amp;lt;char,(Int32,Int32)&amp;gt;&lt;/div&gt;&lt;div&gt;- plateauActuel: Char[,]&lt;/div&gt;&lt;div&gt;&lt;br&gt;&lt;/div&gt;" style="text;strokeColor=none;fillColor=none;align=left;verticalAlign=top;spacingLeft=4;spacingRight=4;overflow=hidden;rotatable=0;points=[[0,0.5],[1,0.5]];portConstraint=eastwest;whiteSpace=wrap;html=1;" vertex="1" parent="U0RL2yRHfHztLzOohjh9-1">
          <mxGeometry y="26" width="490" height="94" as="geometry" />
        </mxCell>
        <mxCell id="U0RL2yRHfHztLzOohjh9-3" value="" style="line;strokeWidth=1;fillColor=none;align=left;verticalAlign=middle;spacingTop=-1;spacingLeft=3;spacingRight=3;rotatable=0;labelPosition=right;points=[];portConstraint=eastwest;strokeColor=inherit;" vertex="1" parent="U0RL2yRHfHztLzOohjh9-1">
          <mxGeometry y="120" width="490" height="8" as="geometry" />
        </mxCell>
        <mxCell id="U0RL2yRHfHztLzOohjh9-4" value="+ Plateau(type): type&lt;div&gt;+ surPlateau(mot: String)&lt;/div&gt;&lt;div&gt;- ExistenceDuMot(i: Int32, j:&amp;nbsp;&lt;span style=&quot;background-color: initial;&quot;&gt;Int32&lt;/span&gt;&lt;span style=&quot;background-color: initial;&quot;&gt;, cpt:&amp;nbsp;&lt;/span&gt;&lt;span style=&quot;background-color: initial;&quot;&gt;Int32&lt;/span&gt;&lt;span style=&quot;background-color: initial;&quot;&gt;, mot: String, casestestees: B&lt;/span&gt;&lt;span style=&quot;background-color: initial;&quot;&gt;ool[,]&lt;/span&gt;&lt;span style=&quot;background-color: initial;&quot;&gt;): Bool&lt;/span&gt;&lt;/div&gt;&lt;div&gt;+ CreationDicoLettres():&amp;nbsp;Dictionary&amp;lt;Char, (Int32, Int32)&amp;gt;&lt;/div&gt;&lt;div&gt;+ calculerPoints(mot: String) : Int32&lt;/div&gt;&lt;div&gt;+ ChoixLettres(nombreLettre): Char[]&lt;/div&gt;&lt;div&gt;+ ToString() : String&lt;/div&gt;&lt;div&gt;&lt;br&gt;&lt;/div&gt;" style="text;strokeColor=none;fillColor=none;align=left;verticalAlign=top;spacingLeft=4;spacingRight=4;overflow=hidden;rotatable=0;points=[[0,0.5],[1,0.5]];portConstraint=eastwest;whiteSpace=wrap;html=1;" vertex="1" parent="U0RL2yRHfHztLzOohjh9-1">
          <mxGeometry y="128" width="490" height="112" as="geometry" />
        </mxCell>
        <mxCell id="U0RL2yRHfHztLzOohjh9-5" value="De" style="swimlane;fontStyle=1;align=center;verticalAlign=top;childLayout=stackLayout;horizontal=1;startSize=26;horizontalStack=0;resizeParent=1;resizeParentMax=0;resizeLast=0;collapsible=1;marginBottom=0;whiteSpace=wrap;html=1;" vertex="1" parent="1">
          <mxGeometry x="290" y="490" width="160" height="150" as="geometry" />
        </mxCell>
        <mxCell id="U0RL2yRHfHztLzOohjh9-6" value="- letters: Char[]&lt;div&gt;- finalLetter : Char&lt;/div&gt;" style="text;strokeColor=none;fillColor=none;align=left;verticalAlign=top;spacingLeft=4;spacingRight=4;overflow=hidden;rotatable=0;points=[[0,0.5],[1,0.5]];portConstraint=eastwest;whiteSpace=wrap;html=1;" vertex="1" parent="U0RL2yRHfHztLzOohjh9-5">
          <mxGeometry y="26" width="160" height="44" as="geometry" />
        </mxCell>
        <mxCell id="U0RL2yRHfHztLzOohjh9-7" value="" style="line;strokeWidth=1;fillColor=none;align=left;verticalAlign=middle;spacingTop=-1;spacingLeft=3;spacingRight=3;rotatable=0;labelPosition=right;points=[];portConstraint=eastwest;strokeColor=inherit;" vertex="1" parent="U0RL2yRHfHztLzOohjh9-5">
          <mxGeometry y="70" width="160" height="8" as="geometry" />
        </mxCell>
        <mxCell id="U0RL2yRHfHztLzOohjh9-8" value="+ FinalLetter {get;} : Char&lt;div&gt;+ Letters {get; set;} : Char[]&lt;/div&gt;&lt;div&gt;&lt;span style=&quot;background-color: initial;&quot;&gt;+ Lance(r:Random) : Void&lt;/span&gt;&lt;br&gt;&lt;/div&gt;&lt;div&gt;+ toString() : String&lt;/div&gt;" style="text;strokeColor=none;fillColor=none;align=left;verticalAlign=top;spacingLeft=4;spacingRight=4;overflow=hidden;rotatable=0;points=[[0,0.5],[1,0.5]];portConstraint=eastwest;whiteSpace=wrap;html=1;" vertex="1" parent="U0RL2yRHfHztLzOohjh9-5">
          <mxGeometry y="78" width="160" height="72" as="geometry" />
        </mxCell>
        <mxCell id="U0RL2yRHfHztLzOohjh9-9" value="Jeu" style="swimlane;fontStyle=1;align=center;verticalAlign=top;childLayout=stackLayout;horizontal=1;startSize=26;horizontalStack=0;resizeParent=1;resizeParentMax=0;resizeLast=0;collapsible=1;marginBottom=0;whiteSpace=wrap;html=1;" vertex="1" parent="1">
          <mxGeometry x="570" y="65" width="510" height="290" as="geometry" />
        </mxCell>
        <mxCell id="U0RL2yRHfHztLzOohjh9-10" value="- Joueurs : List&amp;lt;Joueur&amp;gt;&lt;div&gt;- PlateauActuel : Plateau&lt;/div&gt;&lt;div&gt;- DictionnaireActuel : Diction&lt;/div&gt;&lt;div&gt;- gameIsActive : Bool&lt;/div&gt;&lt;div&gt;- nbTours : Int32&lt;/div&gt;&lt;div&gt;&lt;br&gt;&lt;/div&gt;" style="text;strokeColor=none;fillColor=none;align=left;verticalAlign=top;spacingLeft=4;spacingRight=4;overflow=hidden;rotatable=0;points=[[0,0.5],[1,0.5]];portConstraint=eastwest;whiteSpace=wrap;html=1;" vertex="1" parent="U0RL2yRHfHztLzOohjh9-9">
          <mxGeometry y="26" width="510" height="84" as="geometry" />
        </mxCell>
        <mxCell id="U0RL2yRHfHztLzOohjh9-11" value="" style="line;strokeWidth=1;fillColor=none;align=left;verticalAlign=middle;spacingTop=-1;spacingLeft=3;spacingRight=3;rotatable=0;labelPosition=right;points=[];portConstraint=eastwest;strokeColor=inherit;" vertex="1" parent="U0RL2yRHfHztLzOohjh9-9">
          <mxGeometry y="110" width="510" height="8" as="geometry" />
        </mxCell>
        <mxCell id="U0RL2yRHfHztLzOohjh9-12" value="+ Jeu(joueurs: List&amp;lt;Joueur&amp;gt;&amp;nbsp;joueurs, Plateau plateau, Dictionnaire dictionnaire, Int32 nbTours&lt;div&gt;+ selectJoueur() : List&amp;lt;Joueur&amp;gt;&lt;/div&gt;&lt;div&gt;+ selectTours() : Int32&lt;/div&gt;&lt;div&gt;+ selectLang() : String&lt;/div&gt;&lt;div&gt;+ AfficherMenu() : Void&lt;/div&gt;&lt;div&gt;+ AfficherRegles() : Void&lt;/div&gt;&lt;div&gt;+ AfficherTour(joueur: Joueur&lt;/div&gt;&lt;div&gt;+ AfficherScores() : Void&lt;/div&gt;&lt;div&gt;+ AfficherBanniere() : Void&lt;/div&gt;&lt;div&gt;+ LancerPartie(jeu: Jeu) Void&lt;/div&gt;&lt;div&gt;+ LancerTour() : Void&lt;/div&gt;" style="text;strokeColor=none;fillColor=none;align=left;verticalAlign=top;spacingLeft=4;spacingRight=4;overflow=hidden;rotatable=0;points=[[0,0.5],[1,0.5]];portConstraint=eastwest;whiteSpace=wrap;html=1;" vertex="1" parent="U0RL2yRHfHztLzOohjh9-9">
          <mxGeometry y="118" width="510" height="172" as="geometry" />
        </mxCell>
        <mxCell id="U0RL2yRHfHztLzOohjh9-42" value="Dictionnaire" style="swimlane;fontStyle=1;align=center;verticalAlign=top;childLayout=stackLayout;horizontal=1;startSize=26;horizontalStack=0;resizeParent=1;resizeParentMax=0;resizeLast=0;collapsible=1;marginBottom=0;whiteSpace=wrap;html=1;" vertex="1" parent="1">
          <mxGeometry x="640" y="500" width="280" height="216" as="geometry" />
        </mxCell>
        <mxCell id="U0RL2yRHfHztLzOohjh9-43" value="- dict : List&amp;lt;String&amp;gt;&lt;div&gt;- length : Int32&lt;/div&gt;&lt;div&gt;- lang : String&lt;/div&gt;&lt;div&gt;- dictionarySorted : Dictionary&amp;lt;Int32, List&amp;lt;String&amp;gt;&amp;gt;&lt;/div&gt;&lt;div&gt;&lt;br&gt;&lt;/div&gt;" style="text;strokeColor=none;fillColor=none;align=left;verticalAlign=top;spacingLeft=4;spacingRight=4;overflow=hidden;rotatable=0;points=[[0,0.5],[1,0.5]];portConstraint=eastwest;whiteSpace=wrap;html=1;" vertex="1" parent="U0RL2yRHfHztLzOohjh9-42">
          <mxGeometry y="26" width="280" height="80" as="geometry" />
        </mxCell>
        <mxCell id="U0RL2yRHfHztLzOohjh9-44" value="" style="line;strokeWidth=1;fillColor=none;align=left;verticalAlign=middle;spacingTop=-1;spacingLeft=3;spacingRight=3;rotatable=0;labelPosition=right;points=[];portConstraint=eastwest;strokeColor=inherit;" vertex="1" parent="U0RL2yRHfHztLzOohjh9-42">
          <mxGeometry y="106" width="280" height="8" as="geometry" />
        </mxCell>
        <mxCell id="U0RL2yRHfHztLzOohjh9-45" value="+ Lang { get; } : String&amp;nbsp;&lt;div&gt;+ Length { get; } : Int32&lt;/div&gt;&lt;div&gt;+ Dict { get; } : List&amp;lt;String&amp;gt;&lt;/div&gt;&lt;div&gt;+ Dictionnaire(lang: String)&lt;/div&gt;&lt;div&gt;+ toString() : String&lt;/div&gt;&lt;div&gt;+ RechDichoRecursif(start: Int32, end: Int32): Bool&lt;/div&gt;" style="text;strokeColor=none;fillColor=none;align=left;verticalAlign=top;spacingLeft=4;spacingRight=4;overflow=hidden;rotatable=0;points=[[0,0.5],[1,0.5]];portConstraint=eastwest;whiteSpace=wrap;html=1;" vertex="1" parent="U0RL2yRHfHztLzOohjh9-42">
          <mxGeometry y="114" width="280" height="102" as="geometry" />
        </mxCell>
        <mxCell id="U0RL2yRHfHztLzOohjh9-46" value="Joueur" style="swimlane;fontStyle=1;align=center;verticalAlign=top;childLayout=stackLayout;horizontal=1;startSize=26;horizontalStack=0;resizeParent=1;resizeParentMax=0;resizeLast=0;collapsible=1;marginBottom=0;whiteSpace=wrap;html=1;" vertex="1" parent="1">
          <mxGeometry x="1080" y="480" width="170" height="210" as="geometry" />
        </mxCell>
        <mxCell id="U0RL2yRHfHztLzOohjh9-47" value="- name: String&lt;div&gt;- score : Int32&lt;/div&gt;&lt;div&gt;- words: String[]&lt;/div&gt;" style="text;strokeColor=none;fillColor=none;align=left;verticalAlign=top;spacingLeft=4;spacingRight=4;overflow=hidden;rotatable=0;points=[[0,0.5],[1,0.5]];portConstraint=eastwest;whiteSpace=wrap;html=1;" vertex="1" parent="U0RL2yRHfHztLzOohjh9-46">
          <mxGeometry y="26" width="170" height="54" as="geometry" />
        </mxCell>
        <mxCell id="U0RL2yRHfHztLzOohjh9-48" value="" style="line;strokeWidth=1;fillColor=none;align=left;verticalAlign=middle;spacingTop=-1;spacingLeft=3;spacingRight=3;rotatable=0;labelPosition=right;points=[];portConstraint=eastwest;strokeColor=inherit;" vertex="1" parent="U0RL2yRHfHztLzOohjh9-46">
          <mxGeometry y="80" width="170" height="8" as="geometry" />
        </mxCell>
        <mxCell id="U0RL2yRHfHztLzOohjh9-49" value="+ Name {get;} : String&lt;div&gt;+ Score {get; set;} : Int32&lt;/div&gt;&lt;div&gt;+ Words {get;} : String []&lt;/div&gt;&lt;div&gt;+ Joueur(name: String)&lt;/div&gt;&lt;div&gt;+ Contain(mot: String : Bool&lt;/div&gt;&lt;div&gt;+ Add_Mot(mot: String) : Void&lt;/div&gt;&lt;div&gt;+ toString() : String&lt;/div&gt;" style="text;strokeColor=none;fillColor=none;align=left;verticalAlign=top;spacingLeft=4;spacingRight=4;overflow=hidden;rotatable=0;points=[[0,0.5],[1,0.5]];portConstraint=eastwest;whiteSpace=wrap;html=1;" vertex="1" parent="U0RL2yRHfHztLzOohjh9-46">
          <mxGeometry y="88" width="170" height="122" as="geometry" />
        </mxCell>
        <mxCell id="U0RL2yRHfHztLzOohjh9-50" value="Program" style="swimlane;fontStyle=1;align=center;verticalAlign=top;childLayout=stackLayout;horizontal=1;startSize=26;horizontalStack=0;resizeParent=1;resizeParentMax=0;resizeLast=0;collapsible=1;marginBottom=0;whiteSpace=wrap;html=1;" vertex="1" parent="1">
          <mxGeometry x="1420" y="570" width="160" height="106" as="geometry" />
        </mxCell>
        <mxCell id="U0RL2yRHfHztLzOohjh9-52" value="" style="line;strokeWidth=1;fillColor=none;align=left;verticalAlign=middle;spacingTop=-1;spacingLeft=3;spacingRight=3;rotatable=0;labelPosition=right;points=[];portConstraint=eastwest;strokeColor=inherit;" vertex="1" parent="U0RL2yRHfHztLzOohjh9-50">
          <mxGeometry y="26" width="160" height="34" as="geometry" />
        </mxCell>
        <mxCell id="U0RL2yRHfHztLzOohjh9-53" value="+Program()&lt;div&gt;&lt;u&gt;- Main(arg: String[]) : Void&lt;/u&gt;&lt;/div&gt;" style="text;strokeColor=none;fillColor=none;align=left;verticalAlign=top;spacingLeft=4;spacingRight=4;overflow=hidden;rotatable=0;points=[[0,0.5],[1,0.5]];portConstraint=eastwest;whiteSpace=wrap;html=1;" vertex="1" parent="U0RL2yRHfHztLzOohjh9-50">
          <mxGeometry y="60" width="160" height="46" as="geometry" />
        </mxCell>
        <mxCell id="U0RL2yRHfHztLzOohjh9-55" value="NuageMot" style="swimlane;fontStyle=1;align=center;verticalAlign=top;childLayout=stackLayout;horizontal=1;startSize=26;horizontalStack=0;resizeParent=1;resizeParentMax=0;resizeLast=0;collapsible=1;marginBottom=0;whiteSpace=wrap;html=1;" vertex="1" parent="1">
          <mxGeometry x="1240" y="100" width="360" height="240" as="geometry" />
        </mxCell>
        <mxCell id="U0RL2yRHfHztLzOohjh9-56" value="- width: Int32&lt;div&gt;- heigh: Int32&lt;/div&gt;&lt;div&gt;- random: Random&lt;/div&gt;&lt;div&gt;- mots: Dicttionary&amp;lt;String, Int&amp;gt;&lt;/div&gt;&lt;div&gt;- rectanglesOccupes: List&amp;lt;Rectangle&amp;gt;&lt;/div&gt;" style="text;strokeColor=none;fillColor=none;align=left;verticalAlign=top;spacingLeft=4;spacingRight=4;overflow=hidden;rotatable=0;points=[[0,0.5],[1,0.5]];portConstraint=eastwest;whiteSpace=wrap;html=1;" vertex="1" parent="U0RL2yRHfHztLzOohjh9-55">
          <mxGeometry y="26" width="360" height="94" as="geometry" />
        </mxCell>
        <mxCell id="U0RL2yRHfHztLzOohjh9-57" value="" style="line;strokeWidth=1;fillColor=none;align=left;verticalAlign=middle;spacingTop=-1;spacingLeft=3;spacingRight=3;rotatable=0;labelPosition=right;points=[];portConstraint=eastwest;strokeColor=inherit;" vertex="1" parent="U0RL2yRHfHztLzOohjh9-55">
          <mxGeometry y="120" width="360" height="8" as="geometry" />
        </mxCell>
        <mxCell id="U0RL2yRHfHztLzOohjh9-58" value="+ NuageMots(mots: Dictionary&amp;lt;string, int&amp;gt;,w: Int32)&lt;div&gt;+ GenererNuage() : Void&lt;/div&gt;&lt;div&gt;- CalculerTaillePolice(occurrences: Int32,min: Int32, max: Int32)&lt;/div&gt;&lt;div&gt;- ObtenirCouleurAleatoir(): Color&lt;/div&gt;&lt;div&gt;- TrouverPosition(g: Graphics, mot: String) : Point&lt;/div&gt;&lt;div&gt;- EstPositionLibre(nouveauRect: Rectangle) : Bool&lt;/div&gt;" style="text;strokeColor=none;fillColor=none;align=left;verticalAlign=top;spacingLeft=4;spacingRight=4;overflow=hidden;rotatable=0;points=[[0,0.5],[1,0.5]];portConstraint=eastwest;whiteSpace=wrap;html=1;" vertex="1" parent="U0RL2yRHfHztLzOohjh9-55">
          <mxGeometry y="128" width="360" height="112" as="geometry" />
        </mxCell>
        <mxCell id="U0RL2yRHfHztLzOohjh9-66" style="edgeStyle=orthogonalEdgeStyle;rounded=0;orthogonalLoop=1;jettySize=auto;html=1;entryX=0.582;entryY=0.013;entryDx=0;entryDy=0;entryPerimeter=0;" edge="1" parent="1" source="U0RL2yRHfHztLzOohjh9-4" target="U0RL2yRHfHztLzOohjh9-5">
          <mxGeometry relative="1" as="geometry" />
        </mxCell>
        <mxCell id="U0RL2yRHfHztLzOohjh9-67" value="Des" style="edgeLabel;html=1;align=center;verticalAlign=middle;resizable=0;points=[];" vertex="1" connectable="0" parent="U0RL2yRHfHztLzOohjh9-66">
          <mxGeometry x="-0.535" y="-3" relative="1" as="geometry">
            <mxPoint as="offset" />
          </mxGeometry>
        </mxCell>
        <mxCell id="U0RL2yRHfHztLzOohjh9-68" style="edgeStyle=orthogonalEdgeStyle;rounded=0;orthogonalLoop=1;jettySize=auto;html=1;entryX=-0.002;entryY=0.072;entryDx=0;entryDy=0;entryPerimeter=0;" edge="1" parent="1" source="U0RL2yRHfHztLzOohjh9-4" target="U0RL2yRHfHztLzOohjh9-12">
          <mxGeometry relative="1" as="geometry" />
        </mxCell>
        <mxCell id="U0RL2yRHfHztLzOohjh9-69" value="Plateau&lt;div&gt;Actuel&lt;/div&gt;" style="edgeLabel;html=1;align=center;verticalAlign=middle;resizable=0;points=[];" vertex="1" connectable="0" parent="U0RL2yRHfHztLzOohjh9-68">
          <mxGeometry x="0.0542" y="-2" relative="1" as="geometry">
            <mxPoint as="offset" />
          </mxGeometry>
        </mxCell>
        <mxCell id="U0RL2yRHfHztLzOohjh9-71" style="edgeStyle=orthogonalEdgeStyle;rounded=0;orthogonalLoop=1;jettySize=auto;html=1;entryX=0.566;entryY=-0.005;entryDx=0;entryDy=0;entryPerimeter=0;" edge="1" parent="1" source="U0RL2yRHfHztLzOohjh9-12" target="U0RL2yRHfHztLzOohjh9-42">
          <mxGeometry relative="1" as="geometry" />
        </mxCell>
        <mxCell id="U0RL2yRHfHztLzOohjh9-72" value="Dictionnaire&amp;nbsp;&lt;div&gt;Actuel&lt;/div&gt;" style="edgeLabel;html=1;align=center;verticalAlign=middle;resizable=0;points=[];" vertex="1" connectable="0" parent="U0RL2yRHfHztLzOohjh9-71">
          <mxGeometry x="0.2168" relative="1" as="geometry">
            <mxPoint x="-1" as="offset" />
          </mxGeometry>
        </mxCell>
      </root>
    </mxGraphModel>
  </diagram>
</mxfile>
